<svg width="67" height="67" viewBox="0 0 67 67" fill="none" xmlns="http://www.w3.org/2000/svg">
<path d="M49.1333 14.8238L33.3604 6.33708C31.6854 5.44375 29.7033 5.44375 28.0283 6.33708L12.2833 14.8238C11.1387 15.4658 10.4129 16.6942 10.4129 18.0342C10.4129 19.4021 11.1108 20.6304 12.2833 21.2446L28.0562 29.7313C28.8937 30.1779 29.815 30.4013 30.7083 30.4013C31.6017 30.4013 32.5508 30.1779 33.3604 29.7313L49.1333 21.2446C50.2779 20.6304 51.0037 19.4021 51.0037 18.0342C51.0037 16.6942 50.2779 15.4658 49.1333 14.8238Z" fill="#EDA415"/>
<path d="M25.46 32.6904L10.8037 25.3763C9.65915 24.79 8.37498 24.8738 7.28623 25.5158C6.2254 26.1858 5.58331 27.3304 5.58331 28.5867V42.4333C5.58331 44.8342 6.92331 46.9838 9.0729 48.0725L23.7291 55.3867C24.2316 55.6379 24.79 55.7775 25.3483 55.7775C25.9904 55.7775 26.6604 55.5821 27.2466 55.2471C28.3075 54.5771 28.9496 53.4325 28.9496 52.1763V38.3296C28.9216 35.9288 27.5816 33.7792 25.46 32.6904Z" fill="#EDA415"/>
<path d="M55.8333 28.5867V35.4542C54.4933 35.0633 53.0696 34.8958 51.6458 34.8958C47.8492 34.8958 44.1362 36.2079 41.205 38.5529C37.185 41.7075 34.8958 46.4813 34.8958 51.6458C34.8958 53.0138 35.0633 54.3817 35.4262 55.6938C35.0075 55.6379 34.5887 55.4704 34.1979 55.2192C33.1371 54.5771 32.495 53.4325 32.495 52.1763V38.3296C32.495 35.9288 33.835 33.7792 35.9567 32.6904L50.6129 25.3763C51.7575 24.79 53.0417 24.8738 54.1304 25.5158C55.1912 26.1858 55.8333 27.3304 55.8333 28.5867Z" fill="#EDA415"/>
<path d="M61.3608 43.7454C59.0717 40.9258 55.5821 39.1392 51.6458 39.1392C48.6867 39.1392 45.9508 40.1721 43.8013 41.9029C40.8979 44.1921 39.0833 47.7375 39.0833 51.7017C39.0833 54.0467 39.7533 56.28 40.8979 58.1783C41.6517 59.4346 42.6008 60.5233 43.7175 61.4167H43.7454C45.895 63.2033 48.6588 64.2642 51.6458 64.2642C54.8283 64.2642 57.7038 63.0917 59.9092 61.1375C60.8863 60.3 61.7238 59.295 62.3938 58.1783C63.5383 56.28 64.2083 54.0467 64.2083 51.7017C64.2083 48.6867 63.1475 45.895 61.3608 43.7454ZM57.955 50.1383L51.255 56.3358C50.8642 56.6987 50.3338 56.8942 49.8313 56.8942C49.3008 56.8942 48.7704 56.6987 48.3517 56.28L45.2529 53.1812C44.4433 52.3717 44.4433 51.0317 45.2529 50.2221C46.0625 49.4125 47.4025 49.4125 48.2121 50.2221L49.8871 51.8971L55.1075 47.0675C55.945 46.2858 57.285 46.3417 58.0667 47.1792C58.8763 48.0446 58.8204 49.3567 57.955 50.1383Z" fill="#EDA415"/>
</svg>
